<svg width="131" height="86" viewBox="0 0 131 86" fill="none" xmlns="http://www.w3.org/2000/svg">
<path d="M68.06 47.53C69.52 46.91 70.55 45.93 71.17 44.55L71.65 43.49C72.92 41.16 74.79 39.19 77.05 37.79C78.49 36.9 79.49 35.44 79.81 33.78C80.13 32.12 79.73 30.39 78.72 29.04L78.43 28.66C78.38 28.59 78.39 28.51 78.4 28.48C78.41 28.44 78.45 28.38 78.54 28.35C82.01 27.43 84.44 24.29 84.44 20.69C84.44 16.81 81.68 13.41 77.89 12.61L73 11.58C71.34 11.14 69.39 10 68.86 8.68L68.58 7.97C67.68 5.68 65.54 4.01 62.87 3.49C60.18 2.97 57.46 3.68 55.66 5.34C54.91 4.93 54.06 4.73 53.18 4.76C51.71 4.82 50.39 5.51 49.52 6.68C48.21 6.65 46.95 7.17 46.05 8.14C45.11 9.14 44.66 10.48 44.81 11.83L44.62 11.89C43.35 12.31 42.33 13.25 41.8 14.48C41.28 15.71 41.31 17.1 41.88 18.3L42.06 18.67C40.82 19.64 40 21.02 39.74 22.59C39.46 24.29 39.86 25.98 40.88 27.37L41.14 27.72L41.02 28.72C40.69 31.48 42.32 34.13 44.9 35.11L45.5 36.58C47.82 42.25 52.8 46.35 58.82 47.54L61.21 48.01C52.9 50.13 46.73 57.68 46.73 66.65C46.73 77.26 55.36 85.89 65.97 85.89C76.58 85.89 85.21 77.26 85.21 66.65C85.18 56.75 77.67 48.58 68.06 47.53ZM62.68 4.37C65.09 4.84 66.93 6.27 67.73 8.3L68.01 9C68.68 10.69 70.88 11.95 72.77 12.45C72.78 12.45 72.78 12.45 72.79 12.46L77.69 13.5C81.07 14.21 83.53 17.24 83.53 20.7C83.53 23.88 81.38 26.67 78.3 27.48C77.95 27.57 77.66 27.84 77.54 28.18C77.42 28.52 77.48 28.91 77.7 29.2L77.99 29.58C78.85 30.73 79.19 32.2 78.92 33.61C78.65 35.02 77.8 36.26 76.58 37.02C74.18 38.5 72.2 40.59 70.86 43.07C70.85 43.08 70.85 43.09 70.85 43.1L70.36 44.18C69.81 45.4 68.67 46.97 65.08 47.33C65.09 47.32 65.09 47.31 65.1 47.3C65.59 46.5 65.54 45.51 64.96 44.77L62.22 41.25C62.22 41.24 62.21 41.24 62.21 41.23C60.94 39.75 60.42 37.8 60.79 35.89C61.16 33.98 62.36 32.36 64.09 31.45L66.87 29.99C68.08 29.35 68.87 28.16 68.98 26.8C69.09 25.43 68.49 24.13 67.39 23.32L66.96 23L67.59 22.25C69.13 20.43 69.74 18.05 69.28 15.71C68.82 13.37 67.34 11.4 65.23 10.3L64.74 10.04L64.41 9.12C63.97 7.9 63.07 6.94 61.87 6.42C60.68 5.9 59.36 5.89 58.16 6.4L57.29 6.77L57.12 6.6C56.91 6.33 56.67 6.08 56.41 5.86C58.01 4.49 60.35 3.92 62.68 4.37ZM46.32 36.24L45.64 34.58C45.59 34.46 45.49 34.36 45.37 34.32C43.07 33.55 41.61 31.24 41.9 28.83L42.04 27.65C42.05 27.54 42.02 27.42 41.96 27.33L41.59 26.83C40.72 25.64 40.37 24.19 40.61 22.74C40.85 21.29 41.65 20.02 42.87 19.19C43.05 19.06 43.12 18.82 43.02 18.62L42.68 17.92C42.22 16.95 42.19 15.83 42.62 14.84C43.04 13.85 43.87 13.09 44.89 12.76L45.43 12.58C45.64 12.51 45.77 12.31 45.74 12.09L45.71 11.84C45.56 10.71 45.92 9.6 46.7 8.77C47.41 8.01 48.39 7.6 49.42 7.6C49.52 7.6 49.61 7.6 49.71 7.61C49.87 7.62 50.03 7.55 50.12 7.41C50.82 6.36 51.95 5.72 53.22 5.68C53.95 5.65 54.66 5.82 55.27 6.17C55.29 6.22 55.33 6.27 55.37 6.31C55.46 6.39 55.57 6.43 55.68 6.43C55.96 6.64 56.22 6.89 56.45 7.18L56.81 7.64C56.94 7.8 57.15 7.86 57.34 7.78L58.53 7.28C59.5 6.87 60.56 6.88 61.52 7.3C62.48 7.72 63.21 8.5 63.57 9.48L63.96 10.56C64 10.67 64.08 10.75 64.18 10.81L64.83 11.15C66.7 12.12 68 13.86 68.41 15.93C68.82 18 68.27 20.1 66.92 21.71L65.98 22.83C65.9 22.93 65.86 23.05 65.88 23.17C65.89 23.29 65.96 23.41 66.06 23.48L66.88 24.09C67.73 24.72 68.19 25.72 68.11 26.77C68.03 27.82 67.42 28.74 66.49 29.23L63.71 30.69C61.74 31.72 60.37 33.57 59.95 35.76C59.53 37.94 60.12 40.16 61.56 41.85L64.29 45.36C64.47 45.59 64.55 45.84 64.57 46.08C58.97 41.45 55.2 36.4 53.39 31.15C53.43 31.16 53.46 31.16 53.5 31.16C53.68 31.16 53.86 31.05 53.92 30.86C53.93 30.82 55.45 26.72 58.16 26.02C58.4 25.96 58.55 25.71 58.48 25.47C58.42 25.23 58.17 25.08 57.93 25.15C55.07 25.89 53.47 29.53 53.13 30.38C52.36 27.87 52.03 25.32 52.17 22.75C52.24 21.52 52.4 20.37 52.63 19.32C53.01 18.89 54.79 17.03 58.36 15.48C58.59 15.38 58.69 15.11 58.59 14.89C58.49 14.66 58.23 14.56 58 14.66C55.64 15.68 54.04 16.83 53.06 17.66C54.05 14.31 55.5 12.26 55.52 12.23C55.67 12.03 55.62 11.75 55.42 11.6C55.22 11.45 54.94 11.5 54.79 11.7C54.69 11.84 52.75 14.58 51.79 18.98C51.78 19.02 51.77 19.06 51.76 19.1C51.53 20.19 51.35 21.38 51.28 22.65C51.23 23.63 51.24 24.61 51.31 25.58C49.1 22.43 46.31 20.58 46.18 20.49C45.97 20.35 45.69 20.41 45.56 20.62C45.42 20.83 45.48 21.11 45.69 21.25C45.73 21.27 49.44 23.74 51.58 27.72C51.94 29.83 52.59 31.91 53.54 33.96C54.17 35.32 54.94 36.66 55.83 37.98C53.72 37.03 50.62 35.25 50.59 35.23C50.37 35.11 50.1 35.18 49.97 35.4C49.85 35.62 49.92 35.89 50.14 36.02C50.31 36.12 54.32 38.41 56.37 39.19C56.42 39.21 56.48 39.22 56.53 39.22C56.58 39.22 56.64 39.21 56.69 39.19C58.69 41.89 61.22 44.5 64.27 46.99C64.28 47 64.29 47 64.29 47.01C64.14 47.2 63.92 47.37 63.64 47.45C63.59 47.45 63.54 47.45 63.49 47.45C63.42 47.45 63.35 47.47 63.29 47.5C63.2 47.5 63.11 47.49 63.01 47.47L59.04 46.69C53.26 45.52 48.53 41.63 46.32 36.24ZM47.61 66.65C47.61 57.21 54.78 49.42 63.95 48.43C63.95 49.01 63.91 49.59 63.85 50.15C63.84 50.19 63.83 50.22 63.83 50.26V50.27C62.9 57.98 56.33 63.97 48.37 63.97C48.12 63.97 47.92 64.17 47.92 64.42C47.92 64.67 48.12 64.87 48.37 64.87C55.45 64.87 61.5 60.38 63.83 54.1V57.51C63.83 66.2 58.1 73.58 50.22 76.07C48.57 73.32 47.61 70.09 47.61 66.65ZM65.95 84.98C59.62 84.98 54.03 81.76 50.74 76.86C57.11 74.76 62.1 69.6 63.96 63.13L64.06 73.32C64.06 77.9 66.22 81.98 69.58 84.61C68.4 84.85 67.19 84.98 65.95 84.98ZM70.72 84.34C67.24 81.91 64.96 77.88 64.96 73.31L64.86 63.29C66.69 67.37 70.79 70.23 75.55 70.23H83.92C82.56 77.07 77.39 82.54 70.72 84.34ZM75.55 69.34C70.03 69.34 65.47 65.19 64.83 59.84L64.78 54.54C64.78 54.49 64.77 54.44 64.75 54.39V53.19V50.35C64.83 49.71 64.87 49.06 64.87 48.4V48.35C65.23 48.33 65.59 48.32 65.96 48.32C76.07 48.32 84.29 56.54 84.29 66.65C84.29 67.57 84.22 68.46 84.09 69.34H75.55Z" fill="black"/>
<path d="M111.28 47.41C111.05 47.41 110.81 47.42 110.58 47.42C110.6 47.4 110.61 47.37 110.62 47.34C110.62 47.34 110.62 47.34 110.62 47.33V47.32C110.63 47.3 110.63 47.28 110.64 47.26C110.64 47.25 110.64 47.25 110.65 47.24C110.65 47.24 110.65 47.24 110.65 47.23C110.66 47.18 110.72 46.77 110.79 46.07C110.85 46.1 110.91 46.11 110.98 46.11C111.02 46.11 111.06 46.11 111.1 46.09C111.26 46.05 115.12 44.99 117.91 41.17C119.46 39.05 120.55 35.28 121.06 32.46C121.31 31.06 122.03 26.41 120.69 25.07C120.16 24.53 119.01 24.29 117.2 24.32C116.6 24.33 115.94 24.37 115.27 24.44C115.78 21.54 115.16 19.61 115.14 19.53C115.1 19.4 115 19.3 114.87 19.25C109.87 17.35 104.27 20.29 104.03 20.41C103.9 20.48 103.82 20.6 103.8 20.73C102.44 19.88 100.85 19.29 99.03 18.98C95.64 18.4 92.72 19 92.6 19.02C92.42 19.06 92.28 19.2 92.25 19.38C92.23 19.47 91.89 21.4 92.52 23.38C89.67 23.46 87.65 24 87.56 24.02C87.39 24.07 87.26 24.21 87.23 24.39C87.16 24.89 85.62 36.6 92.09 43.19C95.98 47.16 101.59 47.97 105.56 47.97C105.92 47.97 106.27 47.96 106.6 47.95C98.26 50.05 92.06 57.62 92.06 66.6C92.06 77.21 100.69 85.84 111.3 85.84C121.91 85.84 130.54 77.21 130.54 66.6C130.54 55.99 121.89 47.41 111.28 47.41ZM117.21 25.24C119.36 25.21 119.93 25.61 120.05 25.73C121.49 27.17 119.9 36.93 117.19 40.66C114.6 44.21 110.93 45.22 110.88 45.24H110.87C110.95 43.99 110.98 42.25 110.8 40.28C110.46 36.71 109.31 31.72 105.71 28.1C107.63 26.65 113.52 25.3 117.21 25.24ZM114.32 20.03C114.46 20.59 114.77 22.27 114.32 24.57C112.2 24.85 109.93 25.36 108.08 26C107.29 24.01 106.07 22.41 104.46 21.22C104.84 21.01 109.91 18.49 114.32 20.03ZM93.08 19.87C93.91 19.74 96.28 19.44 98.89 19.89C103.02 20.6 105.82 22.76 107.23 26.3C106.32 26.66 105.56 27.06 105.04 27.47C102.2 24.95 98.38 23.55 93.93 23.41C93.77 23.4 93.61 23.4 93.46 23.4C92.93 21.98 93.01 20.5 93.08 19.87ZM92.72 42.59C87.12 36.88 87.88 26.73 88.07 24.85C89.8 24.46 98.75 22.79 104.73 28.41C104.82 28.5 104.91 28.59 105.01 28.68C110.78 34.42 110.12 44.07 109.84 46.52C103.63 43.81 100.4 40.46 98.77 38.09C96.97 35.46 96.7 33.45 96.69 33.42C96.66 33.17 96.43 33 96.19 33.03C95.94 33.06 95.77 33.28 95.79 33.53C95.8 33.62 96.07 35.74 97.98 38.54C99.59 40.91 102.71 44.2 108.56 46.94C105.28 47.27 97.49 47.46 92.72 42.59ZM92.95 66.65C92.95 57.21 100.12 49.42 109.29 48.43C109.29 49.01 109.25 49.59 109.19 50.15C109.18 50.19 109.17 50.22 109.17 50.26V50.27C108.24 57.98 101.67 63.97 93.71 63.97C93.46 63.97 93.26 64.17 93.26 64.42C93.26 64.67 93.46 64.87 93.71 64.87C100.79 64.87 106.84 60.38 109.17 54.1V57.51C109.17 66.2 103.44 73.58 95.56 76.07C93.9 73.32 92.95 70.09 92.95 66.65ZM111.28 84.98C104.95 84.98 99.36 81.76 96.07 76.86C102.44 74.76 107.43 69.6 109.29 63.13L109.39 73.32C109.39 77.9 111.55 81.98 114.91 84.61C113.73 84.85 112.52 84.98 111.28 84.98ZM116.06 84.34C112.58 81.91 110.3 77.88 110.3 73.31L110.2 63.29C112.03 67.37 116.13 70.23 120.89 70.23H129.26C127.89 77.07 122.72 82.54 116.06 84.34ZM120.88 69.34C115.36 69.34 110.8 65.19 110.16 59.84L110.11 54.54C110.11 54.49 110.1 54.44 110.08 54.39V53.19V50.35C110.16 49.71 110.2 49.06 110.2 48.4V48.35C110.56 48.33 110.92 48.32 111.29 48.32C121.4 48.32 129.62 56.54 129.62 66.65C129.62 67.57 129.55 68.46 129.42 69.34H120.88Z" fill="black"/>
<path d="M20.07 47.41C19.65 47.41 19.23 47.43 18.81 47.45V36.9C18.81 36.89 18.81 36.89 18.81 36.88C18.81 36.87 18.81 36.86 18.81 36.86C18.81 36.81 18.8 35.16 18.88 32.73C19.17 32.18 20.81 29.3 22.82 28.57C22.88 28.62 22.95 28.65 23.03 28.66L29.56 29.61C29.97 29.66 30.38 29.69 30.77 29.69C32.35 29.69 33.74 29.25 34.77 28.42C35.91 27.5 36.57 26.15 36.71 24.42C36.73 24.18 36.56 23.97 36.32 23.93L31.01 23.25C30.15 23.11 29.36 23.05 28.65 23.07C27.93 23.09 27.2 23.22 26.46 23.45C25.69 23.69 25 24.11 24.4 24.7C23.81 25.28 23.34 26.05 22.99 26.97C22.91 27.19 22.84 27.41 22.77 27.63C21.15 28.1 19.79 29.67 18.95 30.89C19.22 25.29 19.96 17.22 22.05 13.37L27.43 14.15C27.78 14.2 28.12 14.22 28.44 14.22C29.77 14.22 30.94 13.85 31.81 13.15C32.78 12.37 33.33 11.24 33.45 9.78C33.47 9.54 33.3 9.33 33.06 9.29L28.66 8.73C27.94 8.61 27.28 8.56 26.69 8.58C26.09 8.6 25.47 8.71 24.85 8.9C24.2 9.1 23.62 9.46 23.11 9.95C22.61 10.44 22.21 11.09 21.92 11.86C21.9 11.9 21.89 11.94 21.87 11.99C21.83 12.02 21.79 12.05 21.76 12.1C20.98 13.2 20.36 14.78 19.87 16.61C19.78 12.26 19.08 8.89 18.77 7.58C18.84 7.33 18.9 7.07 18.93 6.8C19.03 6.07 18.99 5.39 18.82 4.79C18.64 4.18 18.33 3.65 17.91 3.22C17.51 2.81 17.07 2.46 16.61 2.19C16.16 1.92 15.62 1.68 15.02 1.47L11.36 0.0399999C11.13 -0.0500001 10.88 0.0599999 10.78 0.28C10.25 1.48 10.2 2.6 10.62 3.63C11.1 4.78 12.16 5.72 13.63 6.29L17.91 7.88C18.35 9.74 19.47 15.35 18.74 22.02C18.73 22.1 18.75 22.18 18.78 22.26C18.72 22.7 18.66 23.14 18.61 23.58C17.91 22.16 16.64 20.03 14.68 18.34C14.72 17.97 14.75 17.58 14.75 17.19C14.75 16 14.54 14.93 14.12 14.02C13.7 13.1 13.1 12.33 12.33 11.74C11.59 11.17 10.81 10.71 10.01 10.37C9.22001 10.04 8.29001 9.77 7.26001 9.56L0.870007 8.02C0.640007 7.96 0.400007 8.1 0.340007 8.33C-0.239993 10.35 -0.0699933 12.15 0.830007 13.68C1.84001 15.4 3.76001 16.66 6.24001 17.24L14.07 18.96C16.96 21.44 18.32 25.04 18.44 25.37C17.88 31.13 17.92 36.44 17.92 36.85C17.92 36.86 17.92 36.86 17.92 36.87C17.92 36.88 17.92 36.88 17.92 36.89V37.73C17.65 37.3 17.29 36.94 16.83 36.73C16.86 36.44 16.88 36.14 16.88 35.83C16.88 34.78 16.69 33.83 16.32 33.03C15.95 32.22 15.41 31.54 14.74 31.01C14.09 30.5 13.4 30.1 12.69 29.8C11.99 29.51 11.18 29.27 10.27 29.09L4.67001 27.76C4.44001 27.7 4.20001 27.84 4.13001 28.08C3.62001 29.87 3.77001 31.46 4.56001 32.81C5.45001 34.33 7.15001 35.45 9.34001 35.96L16.24 37.48C17.6 37.83 17.92 40.37 17.93 41.32V47.54C8.32001 48.61 0.840007 56.77 0.840007 66.65C0.840007 77.26 9.47001 85.89 20.08 85.89C30.69 85.89 39.32 77.26 39.32 66.65C39.32 56.04 30.68 47.41 20.07 47.41ZM25.04 25.35C25.53 24.86 26.1 24.52 26.73 24.32C27.39 24.12 28.05 24 28.68 23.98C29.33 23.96 30.06 24.01 30.88 24.15L35.77 24.77C35.58 26.04 35.06 27.03 34.21 27.71C33.12 28.59 31.51 28.94 29.69 28.7L24.02 27.88C24 27.72 23.9 27.59 23.76 27.53C23.79 27.45 23.82 27.37 23.85 27.29C24.14 26.49 24.55 25.84 25.04 25.35ZM11.47 3.27C11.19 2.59 11.19 1.84 11.46 1.03L14.7 2.3C14.71 2.3 14.71 2.3 14.72 2.31C15.27 2.5 15.76 2.72 16.16 2.96C16.55 3.19 16.93 3.49 17.27 3.84C17.59 4.17 17.83 4.58 17.97 5.04C18.11 5.51 18.14 6.06 18.06 6.66C17.95 6.7 17.87 6.77 17.81 6.86L13.97 5.43C12.74 4.96 11.85 4.19 11.47 3.27ZM1.60001 13.22C0.890007 12.02 0.720007 10.6 1.10001 9L7.07001 10.42C7.08001 10.42 7.08001 10.42 7.09001 10.42C8.07001 10.62 8.94001 10.87 9.68001 11.18C10.41 11.48 11.12 11.9 11.8 12.43C12.45 12.93 12.96 13.59 13.32 14.37C13.68 15.16 13.87 16.1 13.87 17.16C13.87 17.35 13.86 17.55 13.85 17.73C13.71 17.72 13.57 17.78 13.48 17.9L6.44001 16.35C4.20001 15.84 2.49001 14.73 1.60001 13.22ZM22.78 12.18C23.03 11.53 23.36 10.99 23.76 10.59C24.16 10.19 24.62 9.92 25.13 9.76C25.67 9.59 26.21 9.5 26.73 9.48C27.26 9.46 27.87 9.51 28.54 9.62L32.51 10.13C32.35 11.13 31.93 11.9 31.26 12.45C30.37 13.17 29.06 13.45 27.57 13.26L22.66 12.55C22.69 12.42 22.73 12.3 22.78 12.18ZM5.32001 32.35C4.72001 31.32 4.56001 30.11 4.87001 28.74L10.05 29.97C10.06 29.97 10.06 29.97 10.07 29.97C10.93 30.14 11.69 30.36 12.33 30.63C12.96 30.89 13.58 31.26 14.17 31.72C14.73 32.16 15.18 32.72 15.49 33.4C15.8 34.09 15.96 34.9 15.96 35.83C15.96 36.05 15.95 36.27 15.93 36.48L9.51001 35.07C7.58001 34.62 6.09001 33.65 5.32001 32.35ZM1.74001 66.65C1.74001 57.27 8.82001 49.52 17.91 48.45V50.65C16.82 58.18 10.33 63.98 2.51001 63.98C2.26001 63.98 2.06001 64.18 2.06001 64.43C2.06001 64.68 2.26001 64.88 2.51001 64.88C9.54001 64.88 15.55 60.46 17.91 54.25V55.99C17.91 56.07 17.93 56.14 17.96 56.2V57.52C17.96 66.21 12.23 73.59 4.35001 76.08C2.69001 73.32 1.74001 70.09 1.74001 66.65ZM20.07 84.98C13.74 84.98 8.15001 81.76 4.86001 76.86C11.23 74.76 16.22 69.6 18.08 63.13L18.18 73.32C18.18 77.9 20.34 81.98 23.7 84.61C22.53 84.85 21.31 84.98 20.07 84.98ZM24.85 84.34C21.37 81.91 19.09 77.88 19.09 73.31L18.99 63.29C20.82 67.37 24.92 70.23 29.68 70.23H38.05C36.68 77.07 31.51 82.54 24.85 84.34ZM29.67 69.34C24.15 69.34 19.59 65.19 18.95 59.84L18.9 54.54C18.9 54.49 18.89 54.44 18.87 54.39V53.19V50.35C18.95 49.71 18.99 49.06 18.99 48.4V48.35C19.35 48.33 19.71 48.32 20.08 48.32C30.19 48.32 38.41 56.54 38.41 66.65C38.41 67.57 38.34 68.46 38.21 69.34H29.67Z" fill="black"/>
</svg>
