<svg width="190" height="107" viewBox="0 0 190 107" fill="none" xmlns="http://www.w3.org/2000/svg">
<g clip-path="url(#clip0)">
<path d="M188.6 61.71C189 61.71 189.33 61.38 189.33 60.98V47.83C189.33 47.55 189.17 47.31 188.95 47.19C188.92 47.13 188.88 47.07 188.83 47.02L174.56 32.59C174.62 32.52 174.67 32.44 174.73 32.37C178.56 27.12 181.61 12.19 178.68 9.26C177.9 8.48 176.25 8.12 173.63 8.16C172.83 8.17 171.93 8.23 170.97 8.33C171.67 4.22 170.8 1.49 170.76 1.37C170.69 1.16 170.53 0.990003 170.33 0.910003C163.15 -1.81 155.11 2.39 154.77 2.57C154.6 2.66 154.48 2.81 154.42 2.98C152.49 1.79 150.24 0.960003 147.68 0.530003C142.82 -0.299997 138.63 0.560003 138.46 0.590003C138.17 0.650003 137.95 0.880003 137.89 1.17C137.87 1.3 137.38 4 138.24 6.8C134.33 6.93 131.52 7.67 131.25 7.74C130.97 7.82 130.76 8.05 130.72 8.34C130.62 9.05 128.41 25.82 137.69 35.27C143.27 40.96 151.32 42.13 157 42.13C160.78 42.13 163.52 41.61 163.8 41.56C163.82 41.56 163.83 41.55 163.85 41.55C163.86 41.55 163.87 41.55 163.88 41.54C163.94 41.52 164 41.49 164.05 41.46C164.06 41.46 164.07 41.45 164.07 41.45C164.12 41.42 164.17 41.37 164.21 41.33C164.22 41.32 164.22 41.32 164.23 41.31C164.27 41.26 164.3 41.21 164.33 41.15L164.34 41.14C164.34 41.13 164.34 41.13 164.35 41.12C164.36 41.09 164.37 41.06 164.38 41.02C164.38 41.01 164.39 41 164.39 40.99V40.98C164.41 40.86 164.5 40.31 164.59 39.43C164.65 39.45 164.72 39.46 164.78 39.46C164.84 39.46 164.9 39.45 164.97 39.44C165.03 39.42 165.4 39.32 165.98 39.1C166.01 39.15 166.05 39.2 166.09 39.25L173.86 47.11H166.42L162.25 42.94C162.22 42.91 162.18 42.88 162.14 42.85C162.12 42.84 162.11 42.83 162.09 42.82C162.07 42.81 162.04 42.79 162.02 42.78C162 42.77 161.97 42.76 161.95 42.76C161.93 42.75 161.91 42.75 161.89 42.74C161.8 42.72 161.7 42.72 161.6 42.74C161.58 42.74 161.56 42.75 161.54 42.76C161.52 42.77 161.49 42.77 161.47 42.78C161.44 42.79 161.42 42.81 161.4 42.82C161.38 42.83 161.36 42.84 161.35 42.85C161.27 42.9 161.2 42.97 161.15 43.05C161.14 43.07 161.13 43.09 161.12 43.1C161.11 43.12 161.09 43.15 161.08 43.17C161.07 43.19 161.06 43.22 161.06 43.24C161.05 43.26 161.05 43.28 161.04 43.3C161.03 43.35 161.03 43.4 161.03 43.44V47.09H27.9C27.88 47.06 27.86 47.04 27.84 47.01L1.25 20.14C1.04 19.93 0.73 19.87 0.45 19.98C0.18 20.09 0 20.36 0 20.66V33.8C0 33.99 0.08 34.18 0.21 34.31L26.59 60.98C26.59 61.38 26.92 61.7 27.32 61.7H165.75L173.39 69.3H166.4L162.23 65.13C162.2 65.1 162.16 65.07 162.12 65.04C162.1 65.03 162.09 65.02 162.07 65.01C162.05 65 162.02 64.98 162 64.97C161.98 64.96 161.95 64.95 161.93 64.95C161.91 64.94 161.89 64.94 161.87 64.93C161.78 64.91 161.68 64.91 161.58 64.93C161.56 64.93 161.54 64.94 161.52 64.95C161.5 64.96 161.47 64.96 161.45 64.97C161.42 64.98 161.4 65 161.38 65.01C161.36 65.02 161.34 65.03 161.33 65.04C161.25 65.09 161.18 65.16 161.13 65.24C161.12 65.26 161.11 65.28 161.1 65.29C161.09 65.31 161.07 65.34 161.06 65.36C161.05 65.38 161.04 65.41 161.04 65.43C161.03 65.45 161.03 65.47 161.02 65.49C161.01 65.54 161.01 65.59 161.01 65.63V69.28H27.62L1.25 42.64C1.04 42.43 0.73 42.37 0.45 42.48C0.18 42.59 0 42.86 0 43.15V56.3C0 56.49 0.08 56.68 0.21 56.81L26.8 83.7C26.83 83.73 26.87 83.76 26.91 83.79C26.92 83.79 26.92 83.8 26.93 83.8C26.96 83.82 27 83.84 27.03 83.86C27.04 83.87 27.06 83.87 27.07 83.87C27.1 83.88 27.13 83.89 27.16 83.9C27.2 83.91 27.25 83.91 27.29 83.91H27.3H165.73L173.95 92.09H27.9C27.88 92.06 27.86 92.04 27.84 92.01L1.25 65.14C1.04 64.93 0.73 64.87 0.45 64.98C0.18 65.09 0 65.35 0 65.65V78.8C0 78.99 0.08 79.18 0.21 79.31L26.59 105.98C26.59 106.38 26.92 106.7 27.32 106.7H188.6C189 106.7 189.33 106.37 189.33 105.97V92.82C189.33 92.54 189.17 92.3 188.95 92.18C188.92 92.12 188.88 92.06 188.83 92.01L180.81 83.9H188.6C189 83.9 189.33 83.57 189.33 83.17V70.03C189.33 69.63 189 69.3 188.6 69.3H188.32L180.81 61.7H188.6V61.71ZM169.45 2.16C169.65 3 170.06 5.35 169.44 8.51C166.54 8.9 163.31 9.6 160.64 10.5C159.53 7.73 157.82 5.48 155.58 3.79C156.66 3.27 163.47 0.100003 169.45 2.16ZM139.26 1.94C140.49 1.75 143.82 1.35 147.48 1.98C153.31 2.98 157.28 6.02 159.29 11C158.06 11.49 157.02 12.03 156.28 12.61C151.13 8.05 144.79 6.85 139.78 6.79C139.07 4.86 139.17 2.85 139.26 1.94ZM138.73 34.27C130.81 26.21 131.82 11.88 132.11 9.05C134.75 8.46 147.73 6.11 156.16 14.51C164.29 22.6 163.45 36.15 163.05 39.81C146.04 32.35 144.45 21.36 144.44 21.21C144.39 20.81 144.03 20.52 143.63 20.57C143.23 20.62 142.94 20.98 142.99 21.38C143.05 21.86 144.52 32.68 160.99 40.47C156.13 40.93 145.37 41.03 138.73 34.27ZM164.68 37.99C165.03 32.6 164.75 21.17 157.34 13.63C160.15 11.59 168.44 9.7 173.64 9.62C176.68 9.58 177.47 10.12 177.64 10.29C178.39 11.04 178.76 14.28 177.79 19.63C176.9 24.58 175.27 29.13 173.54 31.5C170.15 36.16 165.45 37.75 164.68 37.99ZM167.37 38.48C169.1 37.64 171.48 36.17 173.63 33.73L186.85 47.09H175.9L167.37 38.48ZM162.45 45.21L164.34 47.1H162.45V45.21ZM1.46 22.43L26.59 47.83V58.9L1.46 33.5V22.43ZM28.05 48.56H187.87V60.25H179.06H166.05H28.05V48.56V48.56ZM162.45 67.41L164.34 69.3H162.45V67.41ZM1.46 44.93L26.59 70.33V81.4L1.46 56V44.93ZM1.46 67.43L26.59 92.83V103.9L1.46 78.5V67.43ZM187.87 105.24H28.05V93.55H187.87V105.24ZM186.85 92.09H175.88C175.85 91.95 175.79 91.82 175.68 91.72L167.83 83.91H178.76L186.85 92.09ZM179.06 82.45H166.05H28.05V70.76H187.71L187.78 70.84C187.81 70.87 187.83 70.89 187.86 70.91V82.45H179.06V82.45ZM186.27 69.3H175.46L167.82 61.7H178.75L186.27 69.3Z" fill="#8BC53F"/>
<path d="M44.77 42.15C48.55 42.15 51.29 41.63 51.57 41.58C51.59 41.58 51.6 41.57 51.62 41.57C51.63 41.57 51.64 41.57 51.65 41.56C51.71 41.54 51.77 41.51 51.82 41.48C51.83 41.48 51.84 41.47 51.84 41.47C51.89 41.44 51.94 41.39 51.98 41.35C51.99 41.34 51.99 41.34 52 41.33C52.04 41.28 52.07 41.23 52.1 41.17L52.11 41.16C52.11 41.15 52.11 41.15 52.12 41.14C52.13 41.11 52.14 41.08 52.15 41.04C52.15 41.03 52.16 41.02 52.16 41.01V41C52.18 40.88 52.27 40.33 52.36 39.45C52.42 39.47 52.49 39.48 52.55 39.48C52.61 39.48 52.67 39.47 52.74 39.46C52.97 39.4 58.52 37.88 62.52 32.4C66.35 27.15 69.4 12.22 66.47 9.29C65.69 8.51 64.04 8.15 61.42 8.19C60.62 8.2 59.72 8.26 58.76 8.36C59.46 4.25 58.59 1.52 58.55 1.4C58.48 1.19 58.32 1.02 58.12 0.940001C50.92 -1.81 42.88 2.4 42.54 2.58C42.37 2.67 42.25 2.82 42.19 2.99C40.26 1.8 38.01 0.970001 35.45 0.540001C30.59 -0.289999 26.4 0.570001 26.23 0.600001C25.94 0.660001 25.72 0.890001 25.66 1.18C25.64 1.31 25.15 4.01 26.01 6.81C22.1 6.94 19.29 7.68 19.02 7.75C18.74 7.83 18.53 8.06 18.49 8.35C18.39 9.06 16.18 25.83 25.46 35.28C31.04 40.98 39.08 42.15 44.77 42.15ZM61.42 9.62C64.46 9.58 65.25 10.12 65.42 10.29C66.17 11.04 66.54 14.28 65.57 19.63C64.68 24.58 63.05 29.13 61.32 31.5C57.93 36.15 53.23 37.74 52.46 37.98C52.81 32.59 52.53 21.16 45.12 13.62C47.93 11.6 56.22 9.7 61.42 9.62ZM57.23 2.16C57.43 3 57.84 5.35 57.22 8.51C54.32 8.9 51.09 9.6 48.42 10.5C47.31 7.73 45.6 5.48 43.36 3.79C44.43 3.27 51.25 0.100001 57.23 2.16ZM27.03 1.94C28.26 1.75 31.59 1.35 35.25 1.98C41.08 2.98 45.05 6.02 47.06 11C45.83 11.49 44.79 12.03 44.05 12.61C38.9 8.05 32.56 6.86 27.55 6.8C26.85 4.86 26.94 2.85 27.03 1.94ZM19.88 9.05C22.52 8.46 35.5 6.11 43.93 14.51C52.06 22.6 51.22 36.15 50.82 39.81C33.78 32.34 32.22 21.32 32.2 21.21C32.15 20.81 31.79 20.52 31.39 20.57C30.99 20.62 30.7 20.98 30.75 21.38C30.81 21.86 32.28 32.68 48.75 40.47C43.89 40.92 33.13 41.03 26.49 34.26C18.59 26.2 19.6 11.88 19.88 9.05Z" fill="#8BC53F"/>
<path d="M101.65 42.15C105.43 42.15 108.17 41.63 108.45 41.58C108.47 41.58 108.48 41.57 108.5 41.57C108.51 41.57 108.52 41.57 108.53 41.56C108.59 41.54 108.64 41.52 108.7 41.48C108.71 41.47 108.72 41.47 108.72 41.46C108.77 41.43 108.82 41.38 108.86 41.34C108.87 41.33 108.87 41.33 108.88 41.32C108.92 41.27 108.95 41.22 108.98 41.16L108.99 41.15C108.99 41.14 108.99 41.14 109 41.13C109.01 41.1 109.02 41.07 109.03 41.03C109.03 41.02 109.04 41.01 109.04 40.99V40.98C109.06 40.86 109.15 40.31 109.24 39.43C109.3 39.45 109.37 39.46 109.43 39.46C109.49 39.46 109.55 39.45 109.62 39.44C109.85 39.38 115.39 37.86 119.4 32.38C123.23 27.13 126.28 12.2 123.35 9.27C122.57 8.49 120.91 8.13 118.3 8.17C117.5 8.18 116.6 8.24 115.64 8.34C116.34 4.23 115.47 1.5 115.43 1.38C115.36 1.17 115.2 0.999998 115 0.919998C107.82 -1.8 99.78 2.4 99.44 2.58C99.27 2.67 99.15 2.82 99.09 2.99C97.16 1.8 94.91 0.969998 92.35 0.539998C87.49 -0.290002 83.3 0.569998 83.13 0.599998C82.84 0.659998 82.62 0.889998 82.56 1.18C82.54 1.31 82.05 4.01 82.91 6.81C79 6.94 76.19 7.68 75.92 7.75C75.64 7.83 75.43 8.06 75.39 8.35C75.29 9.06 73.08 25.83 82.36 35.28C87.92 40.98 95.96 42.15 101.65 42.15ZM118.3 9.62C121.34 9.58 122.13 10.12 122.3 10.29C123.05 11.04 123.42 14.28 122.45 19.63C121.56 24.58 119.93 29.13 118.2 31.5C114.81 36.15 110.11 37.74 109.34 37.98C109.69 32.59 109.41 21.16 102 13.62C104.8 11.6 113.09 9.7 118.3 9.62ZM114.1 2.16C114.3 2.99 114.71 5.35 114.09 8.51C111.19 8.9 107.96 9.6 105.29 10.5C104.18 7.73 102.47 5.48 100.23 3.79C101.31 3.27 108.11 0.099998 114.1 2.16ZM83.91 1.94C85.14 1.75 88.47 1.35 92.13 1.98C97.96 2.98 101.93 6.02 103.94 11C102.71 11.49 101.67 12.03 100.93 12.61C95.78 8.05 89.44 6.85 84.43 6.79C83.73 4.86 83.82 2.85 83.91 1.94ZM76.76 9.05C79.4 8.46 92.38 6.11 100.81 14.51C108.94 22.6 108.1 36.15 107.7 39.81C90.66 32.34 89.1 21.32 89.08 21.21C89.03 20.81 88.67 20.52 88.27 20.57C87.87 20.62 87.58 20.98 87.63 21.38C87.69 21.86 89.16 32.68 105.63 40.47C100.77 40.92 90.01 41.03 83.37 34.26C75.46 26.2 76.47 11.88 76.76 9.05Z" fill="#8BC53F"/>
</g>
<defs>
<clipPath id="clip0">
<rect width="189.33" height="106.7" fill="white"/>
</clipPath>
</defs>
</svg>
