<svg width="135" height="75" viewBox="0 0 135 75" fill="none" xmlns="http://www.w3.org/2000/svg">
<path d="M120.48 41.06H120.31L104.52 25.1C104.44 25.02 104.32 24.97 104.2 24.97H96.46V22.3C96.46 22.18 96.41 22.06 96.33 21.98C96.44 21.12 96.51 20.22 96.51 19.3C96.51 16.8 96.07 14.56 95.2 12.66C94.33 10.75 93.08 9.15001 91.49 7.92001C89.93 6.71001 88.27 5.74001 86.58 5.03001C84.9 4.33001 82.92 3.75001 80.71 3.31001L66.86 0.0100053C66.63 -0.0499947 66.39 0.0900053 66.33 0.320005C65.13 4.55001 65.46 8.30001 67.33 11.48C69.45 15.08 73.48 17.73 78.69 18.95L95.58 22.66V24.97H71.67C71.61 24.97 71.55 24.98 71.49 25.01C71.43 24.99 71.37 24.97 71.31 24.97H63.57V22.3C63.57 22.18 63.52 22.06 63.44 21.98C63.55 21.12 63.62 20.22 63.62 19.3C63.62 16.8 63.18 14.56 62.31 12.66C61.44 10.75 60.19 9.15001 58.6 7.92001C57.04 6.71001 55.38 5.74001 53.69 5.03001C52.01 4.33001 50.03 3.75001 47.82 3.31001L33.97 0.0100053C33.74 -0.0499947 33.5 0.0900053 33.44 0.320005C32.24 4.55001 32.57 8.30001 34.44 11.48C36.56 15.08 40.59 17.73 45.8 18.95L62.69 22.66V24.97H38.77C38.74 24.97 38.71 24.97 38.68 24.98C38.65 24.97 38.62 24.97 38.59 24.97H30.85V22.3C30.85 22.18 30.8 22.06 30.72 21.98C30.83 21.12 30.9 20.22 30.9 19.3C30.9 16.8 30.46 14.56 29.59 12.66C28.72 10.75 27.47 9.15001 25.88 7.92001C24.32 6.71001 22.66 5.74001 20.97 5.03001C19.29 4.33001 17.31 3.75001 15.1 3.31001L1.24001 0.0100053C1.01001 -0.0399947 0.770011 0.0900053 0.710011 0.320005C-0.489989 4.55001 -0.159989 8.30001 1.71001 11.48C3.83001 15.08 7.86001 17.73 13.07 18.95L29.96 22.66V24.97H6.05001C6.04001 24.97 6.03001 24.97 6.02001 24.97C6.01001 24.97 6.00001 24.97 5.99001 24.97C5.95001 24.97 5.92001 24.98 5.88001 25C5.88001 25 5.87001 25 5.87001 25.01C5.85001 25.02 5.83001 25.03 5.81001 25.04C5.80001 25.04 5.80001 25.05 5.79001 25.05C5.78001 25.06 5.76001 25.07 5.75001 25.08C5.74001 25.09 5.74001 25.09 5.73001 25.1C5.71001 25.12 5.70001 25.13 5.69001 25.15C5.69001 25.15 5.69001 25.15 5.69001 25.16C5.68001 25.18 5.66001 25.2 5.65001 25.23C5.65001 25.24 5.64001 25.25 5.64001 25.25C5.63001 25.27 5.63001 25.29 5.62001 25.3C5.62001 25.31 5.62001 25.32 5.61001 25.32C5.61001 25.35 5.60001 25.37 5.60001 25.4V52.1C5.60001 55.98 7.10001 59.64 9.84001 62.41L21.91 74.62C22 74.71 22.11 74.75 22.23 74.75C22.29 74.75 22.34 74.74 22.4 74.72C22.51 74.68 22.59 74.59 22.64 74.49H45.97C50.24 74.49 53.84 71.61 54.95 67.7C56.06 71.61 59.66 74.49 63.93 74.49H78.69C83.08 74.49 86.76 71.45 87.76 67.37C88.76 71.45 92.44 74.49 96.83 74.49H111.59C116.74 74.49 120.93 70.3 120.93 65.15V41.5C120.92 41.26 120.73 41.06 120.48 41.06ZM78.89 18.08C73.92 16.92 70.09 14.41 68.1 11.03C66.42 8.17001 66.07 4.79001 67.07 0.980005L80.51 4.18001C80.52 4.18001 80.52 4.18001 80.53 4.18001C82.69 4.61001 84.61 5.17001 86.25 5.85001C87.87 6.52001 89.45 7.45001 90.96 8.62001C92.44 9.76001 93.6 11.25 94.41 13.03C95.23 14.82 95.64 16.93 95.64 19.3C95.64 20.13 95.59 20.94 95.49 21.73L78.89 18.08ZM45.99 18.08C41.02 16.92 37.19 14.41 35.2 11.03C33.52 8.17001 33.17 4.79001 34.17 0.980005L47.61 4.18001C47.62 4.18001 47.62 4.18001 47.63 4.18001C49.79 4.61001 51.71 5.17001 53.35 5.85001C54.97 6.52001 56.55 7.45001 58.06 8.62001C59.54 9.76001 60.7 11.25 61.51 13.03C62.33 14.82 62.74 16.93 62.74 19.3C62.74 20.13 62.69 20.94 62.59 21.73L45.99 18.08ZM13.27 18.08C8.30001 16.92 4.47001 14.41 2.48001 11.03C0.790011 8.17001 0.450011 4.79001 1.45001 0.980005L14.89 4.18001C14.9 4.18001 14.9 4.18001 14.91 4.18001C17.07 4.61001 18.99 5.17001 20.63 5.85001C22.25 6.52001 23.83 7.45001 25.34 8.62001C26.82 9.76001 27.98 11.25 28.79 13.03C29.61 14.82 30.02 16.93 30.02 19.3C30.02 20.13 29.97 20.94 29.87 21.73L13.27 18.08ZM96.03 34.04C96.28 34.04 96.47 33.84 96.47 33.6V25.86H104.02L119.06 41.06H87.94C87.88 41.06 87.82 41.07 87.76 41.1C87.71 41.08 87.65 41.06 87.58 41.06H87.41L72.37 25.86H95.58V33.6C95.58 33.84 95.78 34.04 96.03 34.04ZM63.13 34.04C63.38 34.04 63.57 33.84 63.57 33.6V25.86H71.12L86.16 41.06H55.04C55.01 41.06 54.98 41.06 54.95 41.07C54.92 41.06 54.89 41.06 54.86 41.06H54.7L39.66 25.86H62.69V33.6C62.69 33.84 62.89 34.04 63.13 34.04ZM30.41 34.04C30.66 34.04 30.85 33.84 30.85 33.6V25.86H38.4L53.44 41.06H22.32C22.27 41.06 22.22 41.07 22.18 41.09L7.12001 25.86H29.97V33.6C29.97 33.84 30.17 34.04 30.41 34.04ZM21.79 73.23L10.47 61.79C7.91001 59.2 6.50001 55.76 6.50001 52.11V26.49L21.79 41.95V73.23ZM45.97 73.6H22.77V41.95H54.33L54.42 42.04V65.15C54.42 69.81 50.63 73.6 45.97 73.6ZM78.69 73.6H63.93C59.27 73.6 55.48 69.81 55.48 65.15V41.95H87.04L87.13 42.04V65.15C87.14 69.81 83.35 73.6 78.69 73.6ZM111.59 73.6H96.83C92.17 73.6 88.38 69.81 88.38 65.15V41.95H119.94L120.03 42.04V65.15C120.04 69.81 116.25 73.6 111.59 73.6Z" fill="black"/>
<path d="M131.52 24.49H128.75C127.07 24.49 125.7 25.86 125.7 27.54V33.04C125.56 33.12 125.47 33.26 125.47 33.43C125.47 33.6 125.56 33.74 125.7 33.82V39.2C125.56 39.28 125.47 39.42 125.47 39.59C125.47 39.76 125.56 39.9 125.7 39.98V45.36C125.56 45.44 125.47 45.58 125.47 45.75C125.47 45.92 125.56 46.06 125.7 46.14V51.52C125.56 51.6 125.47 51.74 125.47 51.91C125.47 52.08 125.56 52.22 125.7 52.3V57.68C125.56 57.76 125.47 57.9 125.47 58.07C125.47 58.24 125.56 58.38 125.7 58.46V63.84C125.56 63.92 125.47 64.06 125.47 64.23C125.47 64.4 125.56 64.54 125.7 64.62V71.07C125.7 72.75 127.07 74.12 128.75 74.12H131.52C133.2 74.12 134.57 72.75 134.57 71.07V27.57C134.58 25.86 133.21 24.49 131.52 24.49ZM133.69 71.05C133.69 72.24 132.72 73.22 131.52 73.22H128.75C127.56 73.22 126.58 72.25 126.58 71.05V64.66H130.88C131.13 64.66 131.32 64.46 131.32 64.22C131.32 63.97 131.12 63.78 130.88 63.78H126.58V58.51H130.88C131.13 58.51 131.32 58.31 131.32 58.07C131.32 57.83 131.12 57.63 130.88 57.63H126.58V52.36H130.88C131.13 52.36 131.32 52.16 131.32 51.92C131.32 51.68 131.12 51.48 130.88 51.48H126.58V46.21H130.88C131.13 46.21 131.32 46.01 131.32 45.77C131.32 45.53 131.12 45.33 130.88 45.33H126.58V40.06H130.88C131.13 40.06 131.32 39.86 131.32 39.62C131.32 39.38 131.12 39.18 130.88 39.18H126.58V33.91H130.88C131.13 33.91 131.32 33.71 131.32 33.47C131.32 33.23 131.12 33.03 130.88 33.03H126.58V27.59C126.58 26.4 127.55 25.42 128.75 25.42H131.52C132.71 25.42 133.69 26.39 133.69 27.59V71.05Z" fill="black"/>
</svg>
