<svg width="28" height="50" viewBox="0 0 28 50" fill="none" xmlns="http://www.w3.org/2000/svg">
<path d="M15.15 4.64001H13.02C11.73 4.64001 10.67 5.69001 10.67 6.99001V11.21C10.57 11.27 10.49 11.38 10.49 11.51C10.49 11.64 10.56 11.75 10.67 11.81V15.94C10.57 16 10.49 16.11 10.49 16.24C10.49 16.37 10.56 16.48 10.67 16.54V20.67C10.57 20.73 10.49 20.84 10.49 20.97C10.49 21.1 10.56 21.21 10.67 21.27V25.4C10.57 25.46 10.49 25.57 10.49 25.7C10.49 25.83 10.56 25.94 10.67 26V30.13C10.57 30.19 10.49 30.3 10.49 30.43C10.49 30.56 10.56 30.67 10.67 30.73V34.86C10.57 34.92 10.49 35.03 10.49 35.16C10.49 35.29 10.56 35.4 10.67 35.46V40.41C10.67 41.7 11.72 42.76 13.02 42.76H15.15C16.44 42.76 17.5 41.71 17.5 40.41V6.98001C17.49 5.69001 16.44 4.64001 15.15 4.64001ZM16.81 40.38C16.81 41.29 16.06 42.04 15.15 42.04H13.02C12.11 42.04 11.36 41.29 11.36 40.38V35.48H14.66C14.85 35.48 15 35.33 15 35.14C15 34.95 14.85 34.8 14.66 34.8H11.36V30.76H14.66C14.85 30.76 15 30.61 15 30.42C15 30.23 14.85 30.08 14.66 30.08H11.36V26.04H14.66C14.85 26.04 15 25.89 15 25.7C15 25.51 14.85 25.36 14.66 25.36H11.36V21.3H14.66C14.85 21.3 15 21.15 15 20.96C15 20.77 14.85 20.62 14.66 20.62H11.36V16.58H14.66C14.85 16.58 15 16.43 15 16.24C15 16.05 14.85 15.9 14.66 15.9H11.36V11.86H14.66C14.85 11.86 15 11.71 15 11.52C15 11.33 14.85 11.18 14.66 11.18H11.36V6.98001C11.36 6.07001 12.11 5.32001 13.02 5.32001H15.15C16.06 5.32001 16.81 6.07001 16.81 6.98001V40.38Z" fill="black"/>
</svg>
