<svg width="131" height="74" viewBox="0 0 131 74" fill="none" xmlns="http://www.w3.org/2000/svg">
<path d="M7.42001 8.27L14.26 9.77C16.73 11.9 17.91 14.96 18.05 15.32C17.56 20.36 17.59 25.01 17.59 25.37C17.59 25.38 17.59 25.38 17.59 25.39C17.59 25.4 17.59 25.4 17.59 25.41V25.88C17.38 25.61 17.12 25.37 16.81 25.22C16.83 24.98 16.85 24.73 16.85 24.48C16.85 23.54 16.68 22.71 16.35 21.99C16.02 21.26 15.54 20.66 14.94 20.19C14.36 19.74 13.75 19.38 13.12 19.12C12.51 18.86 11.79 18.65 10.98 18.49L6.07001 17.32C5.82001 17.26 5.57001 17.41 5.49001 17.66C5.04001 19.25 5.17001 20.67 5.88001 21.87C6.68001 23.22 8.18001 24.22 10.12 24.67L16.16 26C17.3 26.29 17.57 28.47 17.58 29.28V42.14C17.58 42.41 17.8 42.62 18.06 42.62C18.33 42.62 18.54 42.4 18.54 42.14V25.41C18.54 25.4 18.54 25.4 18.54 25.39C18.54 25.38 18.54 25.38 18.54 25.37C18.54 25.32 18.53 23.89 18.6 21.78C19.1 20.83 20.45 18.8 21.96 18.21C22.02 18.24 22.08 18.27 22.14 18.28L27.86 19.11C28.23 19.16 28.58 19.18 28.93 19.18C30.34 19.18 31.58 18.79 32.49 18.05C33.51 17.23 34.1 16.03 34.22 14.48C34.24 14.22 34.06 13.99 33.8 13.96L29.15 13.37C28.39 13.25 27.69 13.19 27.07 13.21C26.43 13.23 25.78 13.34 25.13 13.55C24.44 13.76 23.82 14.14 23.29 14.66C22.76 15.18 22.34 15.86 22.03 16.68C21.96 16.86 21.9 17.04 21.85 17.22C20.53 17.63 19.41 18.83 18.67 19.86C18.91 15 19.57 8.2 21.33 4.88L25.99 5.56C26.3 5.6 26.6 5.62 26.89 5.62C28.07 5.62 29.12 5.29 29.9 4.67C30.77 3.97 31.26 2.96 31.37 1.65C31.39 1.39 31.21 1.16 30.95 1.13L27.09 0.639999C26.45 0.539999 25.87 0.489999 25.34 0.509999C24.81 0.529999 24.26 0.619999 23.71 0.789999C23.13 0.969999 22.6 1.29 22.15 1.73C21.71 2.17 21.35 2.74 21.09 3.44C21.08 3.47 21.07 3.5 21.06 3.53C21.02 3.56 20.99 3.59 20.96 3.63C19.53 5.65 18.7 9.52 18.22 13.44C17.59 12.21 16.51 10.49 14.92 9.1C14.99 8.77 15 8.45 15 8.11C15 7.05 14.81 6.11 14.44 5.3C14.07 4.48 13.53 3.8 12.85 3.27C12.2 2.76 11.5 2.36 10.79 2.06C10.09 1.77 9.28001 1.53 8.36001 1.35L2.76001 0.0199993C2.51001 -0.0500007 2.26001 0.0999993 2.19001 0.349999C1.68001 2.14 1.83001 3.74 2.63001 5.1C3.53001 6.63 5.23001 7.75 7.42001 8.27ZM6.72001 21.37C6.21001 20.51 6.08001 19.5 6.32001 18.36L10.77 19.42C10.78 19.42 10.78 19.42 10.79 19.42C11.54 19.57 12.2 19.76 12.76 19.99C13.31 20.22 13.85 20.53 14.36 20.93C14.84 21.3 15.22 21.79 15.49 22.37C15.76 22.96 15.9 23.67 15.9 24.46C15.9 24.62 15.89 24.77 15.88 24.93L10.35 23.72C8.67001 23.33 7.38001 22.5 6.72001 21.37ZM23.99 15.34C24.41 14.92 24.9 14.63 25.43 14.46C26 14.28 26.57 14.19 27.12 14.17C27.68 14.15 28.32 14.2 29.03 14.32L33.23 14.85C33.06 15.9 32.62 16.72 31.91 17.29C30.97 18.05 29.58 18.35 28.01 18.14L23.11 17.43C23.08 17.32 23.01 17.22 22.91 17.16C22.93 17.11 22.94 17.07 22.96 17.02C23.22 16.33 23.56 15.77 23.99 15.34ZM22.02 3.77C22.23 3.21 22.51 2.75 22.86 2.41C23.2 2.07 23.58 1.84 24.02 1.7C24.49 1.56 24.95 1.48 25.4 1.46C25.86 1.44 26.38 1.48 26.97 1.58L30.36 2.01C30.21 2.82 29.86 3.45 29.31 3.9C28.55 4.51 27.42 4.76 26.14 4.59L21.94 3.98C21.97 3.92 22 3.85 22.02 3.77ZM3.01001 1.06L8.16001 2.29C8.17001 2.29 8.17001 2.29 8.18001 2.29C9.04001 2.46 9.79001 2.68 10.44 2.95C11.07 3.21 11.69 3.58 12.28 4.03C12.84 4.46 13.28 5.02 13.59 5.7C13.9 6.38 14.06 7.2 14.06 8.11C14.06 8.25 14.05 8.39 14.05 8.53C13.95 8.54 13.85 8.59 13.78 8.67L7.64001 7.33C5.71001 6.88 4.22001 5.91 3.46001 4.61C2.86001 3.6 2.71001 2.41 3.01001 1.06Z" fill="black"/>
<path d="M54.22 23.22L54.14 23.87C53.9 25.88 55.07 27.81 56.93 28.55L57.33 29.53C59 33.61 62.58 36.55 66.9 37.41L69.72 37.97C69.84 37.99 69.95 38 70.06 38C70.65 38 71.21 37.7 71.53 37.17C71.91 36.55 71.87 35.77 71.42 35.19L69.48 32.69C69.48 32.68 69.47 32.68 69.47 32.67C68.6 31.66 68.25 30.32 68.5 29.01C68.75 27.7 69.57 26.59 70.76 25.97L72.73 24.94C73.64 24.46 74.23 23.57 74.31 22.54C74.39 21.51 73.94 20.54 73.12 19.93L72.95 19.81L73.29 19.41C74.41 18.08 74.86 16.34 74.53 14.63C74.19 12.92 73.11 11.48 71.57 10.68L71.28 10.53L71.06 9.94C70.73 9.03 70.06 8.31 69.17 7.93C68.28 7.54 67.3 7.54 66.41 7.91L65.9 8.12L65.87 8.09C65.16 7.18 64.08 6.68 62.92 6.72C61.85 6.76 60.89 7.25 60.25 8.08C59.3 8.08 58.4 8.47 57.75 9.17C57.08 9.88 56.75 10.82 56.82 11.79H56.81C55.87 12.1 55.1 12.8 54.71 13.72C54.32 14.63 54.34 15.67 54.77 16.57L54.84 16.72C53.98 17.43 53.42 18.41 53.23 19.52C53.02 20.77 53.32 22.02 54.07 23.03L54.22 23.22ZM54.19 19.67C54.35 18.68 54.9 17.82 55.72 17.25C55.91 17.12 55.98 16.86 55.88 16.65L55.64 16.15C55.33 15.5 55.32 14.75 55.6 14.1C55.88 13.44 56.43 12.93 57.11 12.71L57.5 12.58C57.72 12.51 57.86 12.29 57.83 12.06L57.81 11.88C57.71 11.13 57.95 10.38 58.47 9.83C58.95 9.33 59.6 9.05 60.28 9.05C60.34 9.05 60.41 9.05 60.47 9.06C60.64 9.07 60.81 8.99 60.91 8.85C61.38 8.15 62.13 7.72 62.98 7.69C63.83 7.66 64.61 8.02 65.13 8.69L65.38 9C65.51 9.17 65.75 9.23 65.95 9.15L66.8 8.79C67.45 8.52 68.16 8.52 68.8 8.8C69.44 9.08 69.93 9.6 70.17 10.26L70.45 11.03C70.49 11.14 70.57 11.24 70.68 11.29L71.14 11.53C72.42 12.2 73.32 13.39 73.6 14.81C73.88 16.23 73.51 17.68 72.57 18.78L71.9 19.57C71.81 19.67 71.77 19.8 71.79 19.94C71.81 20.07 71.88 20.19 71.98 20.27L72.56 20.7C73.12 21.11 73.42 21.77 73.37 22.46C73.32 23.15 72.92 23.76 72.3 24.08L70.33 25.11C68.89 25.87 67.88 27.22 67.57 28.82C67.26 30.42 67.69 32.04 68.75 33.28L70.51 35.54C66.96 32.47 64.53 29.16 63.3 25.72C63.44 25.68 63.55 25.57 63.6 25.43C63.61 25.4 64.65 22.57 66.5 22.09C66.76 22.02 66.91 21.76 66.85 21.5C66.78 21.24 66.52 21.09 66.26 21.15C64.48 21.61 63.37 23.58 62.92 24.55C62.47 22.93 62.28 21.28 62.37 19.63C62.41 18.78 62.53 17.98 62.69 17.24C62.99 16.9 64.22 15.65 66.67 14.59C66.91 14.48 67.03 14.2 66.92 13.96C66.81 13.72 66.53 13.6 66.29 13.71C64.9 14.31 63.87 14.98 63.16 15.53C63.84 13.48 64.71 12.25 64.72 12.23C64.88 12.01 64.83 11.71 64.61 11.56C64.39 11.4 64.09 11.45 63.94 11.67C63.87 11.77 62.48 13.73 61.78 16.89C61.77 16.92 61.76 16.96 61.76 17C61.59 17.78 61.47 18.63 61.42 19.54C61.39 20.03 61.39 20.55 61.41 21.1C59.89 19.1 58.14 17.94 58.04 17.88C57.82 17.73 57.52 17.8 57.37 18.02C57.22 18.24 57.29 18.54 57.51 18.69C57.54 18.71 60.14 20.43 61.64 23.23C62 25.29 62.82 27.61 64.37 30.06C62.93 29.37 61.18 28.36 61.15 28.35C60.92 28.22 60.62 28.3 60.49 28.53C60.36 28.76 60.44 29.06 60.67 29.19C60.79 29.26 63.65 30.9 65.12 31.45C65.18 31.47 65.23 31.48 65.29 31.48C65.31 31.48 65.32 31.48 65.34 31.48C66.65 33.24 68.35 35.05 70.56 36.86C70.41 36.99 70.19 37.07 69.93 37.02L67.11 36.46C63.1 35.67 59.79 32.94 58.24 29.16L57.76 27.98C57.71 27.85 57.6 27.75 57.47 27.71C55.91 27.19 54.92 25.62 55.11 23.98L55.21 23.14C55.22 23.02 55.19 22.9 55.12 22.8L54.86 22.45C54.26 21.64 54.02 20.65 54.19 19.67Z" fill="black"/>
<path d="M111.05 38.83C113.69 38.83 115.61 38.47 115.8 38.43C115.81 38.43 115.82 38.42 115.83 38.42C115.84 38.42 115.84 38.42 115.85 38.41C115.89 38.4 115.93 38.38 115.96 38.36C115.97 38.36 115.97 38.35 115.98 38.35C116.01 38.33 116.04 38.3 116.07 38.27L116.08 38.26C116.11 38.23 116.13 38.19 116.15 38.15C116.15 38.15 116.15 38.15 116.15 38.14V38.13C116.16 38.11 116.16 38.09 116.17 38.07C116.17 38.06 116.17 38.05 116.18 38.05C116.18 38.05 116.18 38.05 116.18 38.04C116.19 37.96 116.26 37.56 116.32 36.92C116.37 36.94 116.43 36.95 116.48 36.95C116.52 36.95 116.56 36.94 116.6 36.93C116.76 36.89 120.63 35.83 123.42 32.01C126.09 28.35 128.23 17.93 126.19 15.89C125.65 15.35 124.5 15.1 122.68 15.13C118.71 15.19 112.65 16.61 110.55 18.25C107.71 15.74 103.9 14.34 99.46 14.2C95.88 14.08 93.18 14.81 93.07 14.84C92.88 14.89 92.75 15.05 92.72 15.24C92.65 15.74 91.11 27.45 97.58 34.04C101.47 38.01 107.08 38.83 111.05 38.83ZM122.69 16.09C124.82 16.06 125.38 16.45 125.5 16.57C126.03 17.1 126.29 19.38 125.62 23.13C125 26.59 123.86 29.78 122.64 31.44C120.2 34.79 116.79 35.87 116.39 35.99C116.64 32.24 116.46 24.2 111.25 18.92C113.19 17.48 119.03 16.15 122.69 16.09ZM93.62 15.7C95.39 15.3 104.27 13.67 110.2 19.25C110.29 19.34 110.38 19.43 110.47 19.52C116.19 25.21 115.57 34.76 115.29 37.27C103.35 32.05 102.24 24.33 102.22 24.23C102.19 23.97 101.95 23.78 101.68 23.81C101.42 23.84 101.23 24.08 101.26 24.35C101.3 24.68 102.34 32.28 113.92 37.72C110.57 38.05 102.93 38.17 98.23 33.38C92.7 27.7 93.43 17.63 93.62 15.7Z" fill="black"/>
<path d="M66.77 49.51C76.94 49.51 84.91 46.11 84.91 41.77C84.91 40.03 83.65 38.4 81.26 37.07C81.03 36.94 80.73 37.02 80.6 37.25C80.47 37.48 80.55 37.78 80.78 37.91C82.22 38.72 83.94 40.04 83.94 41.77C83.94 45.44 76.07 48.54 66.76 48.54C57.45 48.54 49.58 45.44 49.58 41.77C49.58 41.5 49.36 41.29 49.1 41.29C48.83 41.29 48.62 41.51 48.62 41.77C48.63 46.11 56.6 49.51 66.77 49.51Z" fill="black"/>
<path d="M130.36 41.58C130.27 39.91 129.02 38.36 126.72 37.07C126.49 36.94 126.19 37.02 126.06 37.25C125.93 37.48 126.01 37.78 126.24 37.91C127.68 38.72 129.4 40.04 129.4 41.77C129.4 45.44 121.53 48.54 112.22 48.54C102.91 48.54 95.04 45.44 95.04 41.77C95.04 41.5 94.82 41.29 94.56 41.29C94.3 41.29 94.08 41.51 94.08 41.77C94.08 46.11 102.05 49.51 112.22 49.51C120.34 49.51 127.05 47.35 129.43 44.27V63.26C129.43 68.43 125.23 72.63 120.06 72.63H10.33C5.16 72.63 0.96 68.43 0.96 63.26V44.24C3.32 47.33 10.05 49.51 18.19 49.51C28.36 49.51 36.33 46.11 36.33 41.77C36.33 40.03 35.07 38.4 32.68 37.07C32.45 36.94 32.15 37.02 32.02 37.25C31.89 37.48 31.97 37.78 32.2 37.91C33.64 38.72 35.36 40.04 35.36 41.77C35.36 45.44 27.49 48.54 18.18 48.54C8.87 48.54 1 45.44 1 41.77C1 41.55 0.85 41.37 0.65 41.31C0.59 41.28 0.53 41.27 0.46 41.27C0.22 41.27 0 41.49 0 41.76V63.26C0 68.96 4.64 73.59 10.33 73.59H120.07C125.77 73.59 130.4 68.95 130.4 63.26V41.78C130.4 41.71 130.39 41.64 130.36 41.58Z" fill="black"/>
</svg>
