<svg width="195" height="145" viewBox="0 0 195 145" fill="none" xmlns="http://www.w3.org/2000/svg">
<path d="M194.65 91.56C194.65 91.5 194.64 91.44 194.63 91.38C194.55 90.97 192.72 81.34 185.75 72.48C183.45 69.56 180.42 66.54 176.49 64.04C176.43 63.98 176.37 63.93 176.3 63.89L83.34 5.65C82.87 5.35 82.24 5.5 81.95 5.97C81.65 6.44 81.8 7.07 82.27 7.36L97.11 16.65C91.18 15.29 84.59 15.25 77.4 16.55C51.44 21.25 38.44 36.08 32.12 47.7C31.85 48.19 32.03 48.8 32.52 49.07C32.67 49.15 32.84 49.19 33 49.19C33.36 49.19 33.71 49 33.89 48.66C40.01 37.43 52.58 23.09 77.76 18.54C88.45 16.6 97.74 17.73 105.36 21.88C105.44 21.92 105.52 21.95 105.6 21.97L132.15 38.6C126.14 37.17 119.45 37.11 112.15 38.43C97.18 41.14 84.95 47.45 75.8 57.19C75.42 57.6 75.44 58.24 75.84 58.62C76.04 58.8 76.28 58.89 76.53 58.89C76.8 58.89 77.07 58.78 77.27 58.57C86.11 49.16 97.97 43.05 112.5 40.42C123.19 38.48 132.48 39.61 140.1 43.76C140.25 43.84 140.41 43.88 140.57 43.88L165.24 59.33C159.74 58.05 153.2 57.79 145.45 59.19C120.17 63.77 107.25 77.98 100.86 89.1C93.94 101.14 93.02 111.94 92.98 112.39C92.98 112.42 92.98 112.44 92.98 112.47V141.53L79.8 133.27V112.9L84.92 111.78C86.93 111.31 88.51 110.26 89.35 108.83C90.1 107.55 90.25 106 89.78 104.34C89.63 103.82 89.1 103.51 88.57 103.63L83.86 104.75C83.05 104.91 82.32 105.13 81.69 105.39C81.04 105.66 80.41 106.03 79.81 106.49C79.16 107 78.64 107.65 78.28 108.43C77.93 109.19 77.75 110.08 77.75 111.06C77.75 111.33 77.77 111.59 77.79 111.85C77.77 111.93 77.76 112 77.76 112.08V117.46C77.65 117.36 77.55 117.26 77.44 117.18C76.84 116.72 76.21 116.35 75.56 116.08C74.94 115.82 74.21 115.61 73.41 115.45L68.69 114.33C68.16 114.2 67.63 114.52 67.48 115.04C67.01 116.7 67.16 118.25 67.91 119.53C68.75 120.96 70.33 122.01 72.35 122.49L77.76 123.68V132.03L60.76 121.38C60.77 121.32 60.78 121.27 60.78 121.21V100.39L65.9 99.27C67.91 98.8 69.49 97.75 70.33 96.32C71.08 95.04 71.23 93.49 70.76 91.83C70.61 91.31 70.08 91 69.55 91.12L64.84 92.24C64.03 92.4 63.3 92.62 62.67 92.88C62.02 93.15 61.39 93.52 60.79 93.98C60.14 94.49 59.62 95.14 59.26 95.92C58.91 96.68 58.73 97.57 58.73 98.55C58.73 98.82 58.75 99.08 58.77 99.34C58.75 99.42 58.74 99.49 58.74 99.57V104.95C58.63 104.85 58.53 104.75 58.42 104.67C57.82 104.21 57.19 103.84 56.54 103.57C55.92 103.31 55.19 103.1 54.39 102.94L49.67 101.82C49.15 101.69 48.61 102.01 48.46 102.53C47.99 104.19 48.14 105.74 48.89 107.02C49.73 108.45 51.31 109.5 53.33 109.98L58.74 111.17V120.15L41.35 109.26V88.64L46.47 87.52C48.48 87.05 50.06 86 50.9 84.57C51.65 83.29 51.8 81.74 51.33 80.08C51.18 79.56 50.65 79.25 50.12 79.37L45.41 80.49C44.6 80.65 43.87 80.87 43.24 81.13C42.59 81.4 41.96 81.77 41.36 82.23C40.71 82.74 40.19 83.39 39.83 84.17C39.48 84.93 39.3 85.82 39.3 86.8C39.3 87.07 39.32 87.33 39.34 87.59C39.32 87.67 39.31 87.74 39.31 87.82V93.2C39.2 93.1 39.1 93 38.99 92.92C38.39 92.46 37.76 92.09 37.11 91.82C36.49 91.56 35.76 91.35 34.96 91.19L30.24 90.07C29.72 89.94 29.18 90.26 29.03 90.78C28.56 92.44 28.71 93.99 29.46 95.27C30.3 96.7 31.88 97.75 33.9 98.23L39.31 99.42V107.97L24.5 98.64V89.29L29.93 88.1C31.94 87.63 33.52 86.58 34.36 85.15C35.11 83.87 35.26 82.32 34.79 80.66C34.64 80.14 34.11 79.83 33.58 79.95L28.87 81.07C28.06 81.23 27.33 81.45 26.7 81.71C26.05 81.98 25.42 82.35 24.82 82.81C24.71 82.9 24.6 83 24.5 83.1V77.72C24.5 77.64 24.49 77.56 24.47 77.49C24.5 77.23 24.51 76.97 24.51 76.7C24.51 75.72 24.33 74.83 23.98 74.07C23.62 73.29 23.11 72.63 22.45 72.13C21.85 71.67 21.22 71.3 20.57 71.03C19.95 70.77 19.22 70.56 18.42 70.4L13.7 69.28C13.17 69.15 12.64 69.47 12.49 69.99C12.02 71.65 12.17 73.2 12.92 74.48C13.76 75.91 15.34 76.96 17.36 77.44L22.46 78.56V97.4L5.64 86.83V81.4C6.51 82.18 7.66 82.77 9.03 83.09L14.87 84.37C14.94 84.39 15.01 84.39 15.09 84.39C15.29 84.39 15.49 84.33 15.66 84.21C15.89 84.05 16.05 83.81 16.09 83.53C16.15 83.16 16.18 82.76 16.18 82.36C16.18 81.38 16 80.49 15.65 79.73C15.29 78.95 14.78 78.3 14.12 77.79C13.52 77.33 12.89 76.96 12.24 76.69C11.62 76.43 10.89 76.22 10.09 76.06L5.65 75V66.17L10.67 65.07C12.68 64.6 14.26 63.55 15.1 62.12C15.85 60.84 16 59.29 15.53 57.63C15.38 57.11 14.85 56.8 14.32 56.92L9.61 58.04C8.8 58.2 8.07 58.42 7.44 58.68C6.79 58.95 6.16 59.32 5.56 59.78C4.91 60.29 4.39 60.94 4.03 61.72C3.68 62.48 3.5 63.37 3.5 64.35C3.5 64.75 3.53 65.14 3.59 65.52C3.6 65.55 3.61 65.58 3.61 65.62V85.58L2.01 84.58V54.28C2.07 53.59 3.14 43.11 9.66 31.8C15.85 21.08 28.35 7.38 52.83 2.94C63.52 1 72.81 2.13 80.43 6.28C80.92 6.55 81.53 6.37 81.8 5.88C82.07 5.39 81.89 4.78 81.4 4.51C73.36 0.130001 63.63 -1.06 52.47 0.96C27.19 5.53 14.27 19.74 7.88 30.86C0.96 42.9 0.04 53.7 0 54.15C0 54.18 0 54.2 0 54.23V85.12C0 85.13 0 85.13 0 85.14C0 85.18 0.01 85.22 0.01 85.26C0.01 85.29 0.02 85.32 0.02 85.34C0.03 85.37 0.04 85.4 0.05 85.43C0.06 85.46 0.07 85.49 0.08 85.52C0.09 85.55 0.11 85.58 0.13 85.6C0.15 85.63 0.16 85.66 0.18 85.69C0.2 85.72 0.22 85.74 0.24 85.77C0.26 85.8 0.28 85.82 0.3 85.84C0.32 85.86 0.35 85.88 0.37 85.9C0.4 85.92 0.43 85.95 0.46 85.97L0.47 85.98L22.6 99.84C22.76 100.14 23.07 100.34 23.43 100.36L93.46 144.22C93.47 144.22 93.47 144.22 93.48 144.23C93.55 144.27 93.63 144.31 93.7 144.33C93.72 144.33 93.73 144.34 93.75 144.34C93.83 144.36 93.91 144.37 94 144.37C94.08 144.37 94.15 144.36 94.23 144.34L162 128.7L162.04 128.69L193.88 121.34C194.34 121.23 194.66 120.83 194.66 120.35L194.65 91.56ZM72.82 120.5C71.35 120.16 70.23 119.44 69.67 118.49C69.34 117.92 69.2 117.27 69.26 116.53L72.97 117.41C72.98 117.41 72.99 117.42 73.01 117.42C73.69 117.56 74.3 117.73 74.8 117.94C75.28 118.14 75.76 118.42 76.21 118.77C76.61 119.08 76.91 119.47 77.14 119.96C77.34 120.4 77.46 120.93 77.48 121.52L72.82 120.5ZM80.13 109.28C80.35 108.79 80.66 108.4 81.06 108.09C81.51 107.74 81.99 107.46 82.47 107.26C82.98 107.05 83.58 106.87 84.3 106.73L88.01 105.85C88.07 106.58 87.94 107.24 87.6 107.81C87.04 108.76 85.92 109.48 84.47 109.82L79.79 110.85C79.82 110.24 79.93 109.72 80.13 109.28ZM53.81 107.97C52.34 107.63 51.22 106.91 50.66 105.96C50.33 105.39 50.19 104.74 50.25 104L53.96 104.88C53.97 104.88 53.98 104.89 54 104.89C54.68 105.03 55.29 105.2 55.79 105.41C56.27 105.61 56.75 105.89 57.2 106.24C57.6 106.55 57.9 106.94 58.13 107.43C58.33 107.87 58.45 108.4 58.47 108.99L53.81 107.97ZM61.13 96.74C61.35 96.25 61.66 95.86 62.06 95.55C62.51 95.2 62.99 94.92 63.47 94.72C63.98 94.51 64.58 94.33 65.3 94.19L69.01 93.31C69.07 94.04 68.94 94.7 68.6 95.27C68.04 96.22 66.92 96.94 65.47 97.28L60.79 98.31C60.81 97.71 60.92 97.18 61.13 96.74ZM34.4 96.24C32.93 95.9 31.81 95.18 31.25 94.23C30.92 93.66 30.78 93.01 30.84 92.27L34.55 93.15C34.56 93.15 34.57 93.16 34.59 93.16C35.27 93.3 35.88 93.47 36.38 93.68C36.86 93.88 37.34 94.16 37.79 94.51C38.19 94.82 38.49 95.21 38.72 95.7C38.92 96.14 39.04 96.67 39.06 97.26L34.4 96.24ZM41.72 85.01C41.94 84.52 42.25 84.13 42.65 83.82C43.1 83.47 43.58 83.19 44.06 82.99C44.57 82.78 45.17 82.6 45.89 82.46L49.6 81.58C49.66 82.31 49.53 82.97 49.19 83.54C48.63 84.49 47.51 85.21 46.06 85.55L41.38 86.58C41.4 85.98 41.51 85.46 41.72 85.01ZM25.14 85.59C25.36 85.1 25.67 84.71 26.07 84.4C26.52 84.05 27 83.77 27.48 83.57C27.99 83.36 28.59 83.18 29.31 83.04L33.02 82.16C33.08 82.89 32.95 83.55 32.61 84.12C32.05 85.07 30.93 85.79 29.48 86.13L24.8 87.16C24.82 86.56 24.93 86.04 25.14 85.59ZM14.67 73.43C14.34 72.86 14.2 72.21 14.26 71.47L17.97 72.35C17.98 72.35 17.99 72.36 18.01 72.36C18.69 72.5 19.3 72.67 19.8 72.88C20.28 73.08 20.76 73.36 21.21 73.71C21.61 74.02 21.91 74.41 22.14 74.9C22.34 75.34 22.46 75.87 22.48 76.46L17.81 75.43C16.35 75.09 15.23 74.38 14.67 73.43ZM5.92 77.14L9.63 78.02C9.64 78.02 9.65 78.03 9.67 78.03C10.35 78.17 10.96 78.34 11.46 78.55C11.94 78.75 12.42 79.03 12.87 79.38C13.27 79.69 13.57 80.08 13.8 80.57C14 81.01 14.12 81.54 14.14 82.13L9.47 81.1C8 80.76 6.88 80.04 6.32 79.09C5.99 78.53 5.86 77.87 5.92 77.14ZM5.87 62.55C6.09 62.06 6.4 61.67 6.8 61.36C7.25 61.01 7.73 60.73 8.21 60.53C8.72 60.32 9.32 60.14 10.04 60L13.75 59.12C13.81 59.85 13.68 60.51 13.34 61.08C12.78 62.03 11.66 62.75 10.21 63.09L5.53 64.12C5.56 63.52 5.67 62.99 5.87 62.55ZM128.95 134.21V93.54L160.81 86.19V126.91L128.95 134.21ZM162.83 126.44V84.91C162.83 84.6 162.69 84.31 162.45 84.12C162.21 83.93 161.89 83.86 161.59 83.93L127.71 91.75C127.25 91.86 126.93 92.26 126.93 92.73V134.72L95.01 142.09V112.52C95.07 111.82 96.14 101.35 102.66 90.04C108.84 79.33 121.34 65.62 145.81 61.19C156.85 59.19 166.27 60.41 173.96 64.8L175.23 65.6C175.28 65.63 175.34 65.65 175.4 65.67C178.63 67.74 181.54 70.41 184.11 73.67C190.46 81.71 192.42 90.7 192.62 91.66L192.64 119.56L162.83 126.44Z" fill="#13739E"/>
</svg>
