<svg width="164" height="86" viewBox="0 0 164 86" fill="none" xmlns="http://www.w3.org/2000/svg">
<g clipPath="url(#clip0)">
<path d="M162.04 58.67H149.46C148.52 58.67 147.75 57.9 147.75 56.96V37.72C147.75 36.78 148.52 36.01 149.46 36.01H150.51C150.98 36.01 151.37 36.39 151.37 36.87V54.54C151.37 55.01 151.75 55.4 152.23 55.4H162.9C163.37 55.4 163.76 55.78 163.76 56.26V56.97C163.75 57.9 162.98 58.67 162.04 58.67Z" fill="#8bc53f"/>
<path d="M132.44 35.95C133.38 35.95 134.15 36.71 134.15 37.66V45.47C135.56 43.4 137.43 42.38 139.73 42.38C142.85 42.38 144.62 44.09 144.62 47.53V57.48C144.62 58.42 143.86 59.19 142.91 59.19C141.97 59.19 141.2 58.43 141.2 57.48V48.42C141.2 46.06 140.31 45.4 138.61 45.4C137.56 45.4 136.54 46.02 135.59 47.27C134.64 48.52 134.15 50.16 134.15 52.2V57.49C134.15 58.43 133.39 59.2 132.44 59.2C131.5 59.2 130.73 58.44 130.73 57.49V37.65C130.74 36.71 131.5 35.95 132.44 35.95Z" fill="#8bc53f"/>
<path d="M122.99 39.32C125.19 41.53 126.29 44.21 126.29 47.37C126.29 50.53 125.19 53.2 122.99 55.39C120.79 57.58 118.1 58.67 114.92 58.67C111.74 58.67 109.05 57.58 106.87 55.39C104.68 53.2 103.59 50.53 103.59 47.37C103.59 44.19 104.68 41.5 106.87 39.3C109.06 37.1 111.74 36 114.92 36C118.1 36 120.79 37.11 122.99 39.32ZM120.51 53.09C122.03 51.55 122.78 49.65 122.78 47.38C122.78 45.09 122.02 43.16 120.51 41.62C118.99 40.07 117.13 39.3 114.93 39.3C112.73 39.3 110.87 40.07 109.36 41.62C107.86 43.17 107.1 45.09 107.1 47.38C107.1 49.65 107.85 51.56 109.36 53.09C110.87 54.62 112.72 55.4 114.93 55.4C117.13 55.39 118.99 54.62 120.51 53.09Z" fill="#8bc53f"/>
<path d="M94.12 46.02L89.22 44.97C88.23 44.77 87.5 44.44 87.04 43.99C86.58 43.54 86.35 42.92 86.35 42.13C86.35 41.12 86.76 40.29 87.57 39.64C88.38 39 89.45 38.68 90.78 38.68C92.13 38.68 93.28 39.05 94.23 39.78C94.69 40.13 95.06 40.54 95.34 41.01C95.65 41.51 96.2 41.81 96.78 41.81H98.39C98.99 41.81 99.4 41.21 99.19 40.64C98.67 39.27 97.81 38.15 96.61 37.26C95.04 36.11 93.12 35.54 90.84 35.54C88.34 35.54 86.32 36.15 84.8 37.38C83.28 38.61 82.52 40.23 82.52 42.23C82.52 45.45 84.43 47.51 88.24 48.39L93.18 49.4C94.33 49.65 95.15 50 95.63 50.45C96.11 50.9 96.36 51.55 96.36 52.41C96.36 53.47 95.94 54.32 95.09 54.96C94.24 55.6 93.08 55.92 91.59 55.92C90.03 55.92 88.74 55.55 87.7 54.82C87.21 54.47 86.81 54.05 86.49 53.55C86.18 53.06 85.65 52.74 85.06 52.74H83.03C82.45 52.74 82.03 53.3 82.21 53.85C82.68 55.29 83.58 56.45 84.9 57.35C86.64 58.53 88.76 59.13 91.26 59.13C93.88 59.13 95.98 58.5 97.57 57.25C99.16 56 99.95 54.31 99.95 52.19C99.94 48.94 98 46.88 94.12 46.02Z" fill="#8bc53f"/>
<path d="M81.8 25.7C76.22 12.87 64.45 2.99 49.56 0.54C47.9 0.27 46.24 0.09 44.6 0.02C43.92 -0.02 43.23 0 42.56 0.08C31.63 1.38 25.78 7.52 22.75 12.66C22.23 13.55 21.77 14.44 21.37 15.3C29.31 8.75 39.99 5.65 50.89 7.71C59.42 9.32 66.66 13.83 71.81 20.02C73.95 22.19 75.85 24.68 77.48 27.55C77.52 27.62 77.56 27.69 77.6 27.77C79.06 30.35 82.99 28.42 81.8 25.7Z" fill="#8bc53f"/>
<path d="M39.14 0.110001C20.78 1.63 4.81 15.05 0.830002 33.81C0.520002 35.26 0.290003 36.7 0.140003 38.13C-0.239997 41.66 0.290002 45.23 1.63 48.51C2.89 51.6 4.88 55.64 7.86 59.71C11.47 64.64 15.81 68.66 20.75 71.65C23.34 73.22 26.1 74.5 29.02 75.5C18.14 70.43 10.55 60.2 8.73 48.46C8.12 44.54 8.16 40.44 8.94 36.32C9.34 34.23 9.91 32.21 10.63 30.28C12.73 24.72 16.12 19.91 20.39 16.13C20.9 14.92 21.51 13.66 22.25 12.4C25.03 7.7 30.11 2.17 39.14 0.110001Z" fill="#8bc53f"/>
<path d="M69.82 54.35C67.82 51.2 64.49 49.28 61.07 48.01C60.61 47.84 60.16 47.68 59.69 47.53C60.32 42.22 59.44 36.61 56.05 32.32C54.37 30.19 52.1 28.57 49.75 27.24C47.36 25.89 44.77 24.98 42.12 24.29C41 24 39.87 23.78 38.74 23.51C37.78 23.28 36.81 23.05 35.85 22.82C32.93 22.13 30.02 21.43 27.1 20.74C25.19 20.28 23.28 19.79 21.36 19.37C21.33 19.36 21.3 19.36 21.27 19.35C20.96 19.28 20.48 19.32 20.07 19.49L20.01 19.48L20 19.53C19.7 19.67 19.45 19.87 19.37 20.15C18.73 22.4 18.24 24.66 18.23 27.01C18.22 29.58 18.74 32.12 19.9 34.42C21.99 38.59 25.76 41.58 29.97 43.43C32.4 44.49 34.95 45.1 37.51 45.69C40.33 46.35 43.15 47 45.98 47.66C48.32 48.2 50.66 48.75 53 49.29C54.28 49.59 55.57 49.9 56.83 50.28C57.99 50.63 59.13 51.05 60.23 51.55C60.72 51.77 61.21 52.01 61.68 52.27C62.08 52.49 62.59 52.8 62.89 53C64.56 54.14 65.74 55.67 66.37 57.59C67.13 59.91 67.26 62.54 66.8 64.94C66.37 67.2 65.36 69.29 63.85 71.03C63.68 71.23 62.94 72.24 62.26 72.9C61.39 73.75 59.57 75.11 58.51 75.66C58.45 75.69 58.38 75.72 58.32 75.76C58.3 75.77 58.29 75.78 58.27 75.78C58.26 75.78 58.26 75.78 58.25 75.79C58.11 75.86 57.97 75.93 57.82 76C57.53 76.14 57.24 76.27 56.95 76.4C56.38 76.66 55.8 76.9 55.21 77.12C55.07 77.17 54.94 77.22 54.8 77.27C54.71 77.3 54.63 77.33 54.54 77.36H54.53C54.22 77.46 53.91 77.56 53.59 77.65C52.96 77.83 52.33 78 51.69 78.14C51.6 78.16 51.5 78.18 51.41 78.2C51.4 78.2 51.38 78.21 51.37 78.21C51.23 78.24 51.09 78.26 50.95 78.29C50.61 78.35 50.26 78.4 49.92 78.45C49.59 78.49 49.26 78.53 48.92 78.56C48.74 78.58 48.56 78.59 48.38 78.61C48.16 78.63 48.06 78.63 47.95 78.64C47.2 78.67 44.3 78.85 39.7 78.59C38.98 78.5 38.25 78.39 37.53 78.26C36.72 78.11 35.92 77.92 35.14 77.72C29.8 76.68 24.88 74.81 20.45 72.13C15.44 69.1 11.05 65.03 7.4 60.03C3.3 54.41 1.06 48.86 0 45.72C0.29 49.85 1.18 53.86 2.6 57.65C2.61 57.68 2.63 57.72 2.64 57.75C2.72 57.96 2.8 58.17 2.88 58.37C3.13 58.98 3.38 59.59 3.65 60.18C3.68 60.26 3.72 60.33 3.75 60.41C3.79 60.5 3.83 60.58 3.87 60.67C7.25 67.94 12.64 74.2 19.46 78.61C21.43 79.8 23.54 80.87 25.75 81.83C31.11 84.15 36.59 85.36 42.02 85.42C42.88 85.43 43.74 85.41 44.61 85.38C45.38 85.41 46.15 85.43 46.92 85.43C46.99 85.43 47.07 85.43 47.15 85.42C47.18 85.42 47.2 85.42 47.22 85.41C51.3 84.96 55.4 84.02 59.09 82.17C61.94 80.74 64.45 78.81 66.56 76.41C69.24 73.37 71.31 69.74 71.86 65.68C72.38 61.86 71.91 57.65 69.82 54.35ZM55.62 46.39C54.31 46.07 52.98 45.78 51.67 45.48C48.8 44.81 45.92 44.15 43.05 43.48C41.13 43.03 39.2 42.59 37.28 42.14C33.46 41.25 29.69 39.61 26.83 36.86C25.26 35.35 24.02 33.55 23.28 31.49C22.42 29.12 22.27 26.58 22.63 24.1C22.67 23.8 22.73 23.51 22.78 23.22C23.66 23.43 24.54 23.64 25.42 23.85C28.07 24.48 30.72 25.11 33.37 25.74C34.79 26.08 36.21 26.45 37.65 26.76C42.44 27.78 47.25 29.4 50.93 32.77C54.51 36.05 55.83 40.89 55.67 45.63C55.65 45.89 55.64 46.14 55.62 46.39ZM54.53 77.37C54.47 77.38 54.36 77.42 54.53 77.37V77.37ZM51.37 78.21C51.32 78.22 51.27 78.23 51.37 78.21V78.21Z" fill="#8bc53f"/>
</g>
<defs>
<clipPath id="clip0">
<rect width="163.75" height="85.42" fill="white"/>
</clipPath>
</defs>
</svg>
