<svg width="24" height="24" viewBox="0 0 24 24" fill="none" xmlns="http://www.w3.org/2000/svg">
<path d="M9.11111 2H2.88889C2.39797 2 2 2.39797 2 2.88889V9.11111C2 9.60203 2.39797 10 2.88889 10H9.11111C9.60203 10 10 9.60203 10 9.11111V2.88889C10 2.39797 9.60203 2 9.11111 2Z" stroke="black" stroke-width="1.5" stroke-linecap="round" stroke-linejoin="round"/>
<path d="M9.11111 13H2.88889C2.39797 13 2 13.398 2 13.8889V20.1111C2 20.602 2.39797 21 2.88889 21H9.11111C9.60203 21 10 20.602 10 20.1111V13.8889C10 13.398 9.60203 13 9.11111 13Z" stroke="black" stroke-width="1.5" stroke-linecap="round" stroke-linejoin="round"/>
<path d="M20.5556 17H17.4444C17.199 17 17 17.199 17 17.4444V20.5556C17 20.801 17.199 21 17.4444 21H20.5556C20.801 21 21 20.801 21 20.5556V17.4444C21 17.199 20.801 17 20.5556 17Z" stroke="black" stroke-width="1.5" stroke-linecap="round" stroke-linejoin="round"/>
<path d="M16.6944 13H13.4618C13.2068 13 13 13.2068 13 13.4618V16.6944C13 16.9495 13.2068 17.1562 13.4618 17.1562H16.6944C16.9495 17.1562 17.1562 16.9495 17.1562 16.6944V13.4618C17.1562 13.2068 16.9495 13 16.6944 13Z" stroke="black" stroke-width="1.5" stroke-linecap="round" stroke-linejoin="round"/>
<path d="M20.1111 2H13.8889C13.398 2 13 2.39797 13 2.88889V9.11111C13 9.60203 13.398 10 13.8889 10H20.1111C20.602 10 21 9.60203 21 9.11111V2.88889C21 2.39797 20.602 2 20.1111 2Z" stroke="black" stroke-width="1.5" stroke-linecap="round" stroke-linejoin="round"/>
<path d="M6.29999 5.79999H5.79999V6.29999H6.29999V5.79999Z" stroke="black" stroke-width="0.5"/>
<path d="M6.29999 16.8H5.79999V17.3H6.29999V16.8Z" stroke="black" stroke-width="0.5"/>
<path d="M17.3 5.79999H16.8V6.29999H17.3V5.79999Z" stroke="black" stroke-width="0.5"/>
</svg>
