<svg width="129" height="115" viewBox="0 0 129 115" fill="none" xmlns="http://www.w3.org/2000/svg">
<g clip-path="url(#clip0)">
<path d="M77.54 27.61H38.98C37.86 27.61 36.95 26.7 36.95 25.58C36.95 24.46 37.86 23.55 38.98 23.55H77.55C78.67 23.55 79.58 24.46 79.58 25.58C79.57 26.7 78.67 27.61 77.54 27.61Z" fill="#FF8A5C"/>
<path d="M77.54 61.51H38.98C37.86 61.51 36.95 60.6 36.95 59.48C36.95 58.36 37.86 57.45 38.98 57.45H77.55C78.67 57.45 79.58 58.36 79.58 59.48C79.58 60.6 78.67 61.51 77.54 61.51Z" fill="#FF8A5C"/>
<path d="M77.54 91.15H38.98C37.86 91.15 36.95 90.24 36.95 89.12C36.95 88 37.86 87.09 38.98 87.09H77.55C78.67 87.09 79.58 88 79.58 89.12C79.57 90.24 78.67 91.15 77.54 91.15Z" fill="#FF8A5C"/>
<path d="M28.62 34.31H15.02C13.9 34.31 12.99 33.4 12.99 32.28V18.68C12.99 17.56 13.9 16.65 15.02 16.65H28.62C29.74 16.65 30.65 17.56 30.65 18.68V32.28C30.65 33.4 29.74 34.31 28.62 34.31ZM17.05 30.25H26.59V20.71H17.05V30.25Z" fill="#FF8A5C"/>
<path d="M28.62 97.84H15.02C13.9 97.84 12.99 96.93 12.99 95.81V82.21C12.99 81.09 13.9 80.18 15.02 80.18H28.62C29.74 80.18 30.65 81.09 30.65 82.21V95.81C30.65 96.94 29.74 97.84 28.62 97.84ZM17.05 93.78H26.59V84.24H17.05V93.78Z" fill="#FF8A5C"/>
<path d="M28.62 68.21H15.02C13.9 68.21 12.99 67.3 12.99 66.18V52.58C12.99 51.46 13.9 50.55 15.02 50.55H28.62C29.74 50.55 30.65 51.46 30.65 52.58V66.18C30.65 67.3 29.74 68.21 28.62 68.21ZM17.05 64.15H26.59V54.61H17.05V64.15Z" fill="#FF8A5C"/>
<path d="M92.36 114.49H2.03C0.91 114.49 0 113.58 0 112.46V2.03C0 0.91 0.91 0 2.03 0H92.36C93.48 0 94.39 0.91 94.39 2.03V32.28C94.39 33.4 93.48 34.31 92.36 34.31C91.24 34.31 90.33 33.4 90.33 32.28V4.06H4.06V110.43H90.33V82.21C90.33 81.09 91.24 80.18 92.36 80.18C93.48 80.18 94.39 81.09 94.39 82.21V112.46C94.39 113.58 93.48 114.49 92.36 114.49Z" fill="#FF8A5C"/>
<path d="M94.4 90.87C113.316 90.87 128.65 75.5357 128.65 56.62C128.65 37.7042 113.316 22.37 94.4 22.37C75.4842 22.37 60.15 37.7042 60.15 56.62C60.15 75.5357 75.4842 90.87 94.4 90.87Z" fill="#FF6B57"/>
</g>
<defs>
<clipPath id="clip0">
<rect width="128.66" height="114.49" fill="white"/>
</clipPath>
</defs>
</svg>
