<svg width="46" height="47" viewBox="0 0 46 47" fill="none" xmlns="http://www.w3.org/2000/svg">
<path d="M23.32 13.59H22.01V19.5H23.32V13.59Z" fill="black"/>
<path d="M14.79 25.42H9.53V26.73H14.79V25.42Z" fill="black"/>
<path d="M13.86 30.21C13.86 30.14 13.86 30.07 13.86 30C13.93 28.37 15.3 27.06 16.97 27.02H16.98L18.5 27C18.72 25.58 19.92 24.49 21.4 24.44L22.77 24.37C22.9 21.86 24.98 19.87 27.52 19.87H28.07C30.71 19.87 32.87 22.01 32.9 24.65C34.91 24.98 36.45 26.72 36.45 28.83V29.18C36.45 31.51 34.55 33.41 32.22 33.41H17.11C15.35 33.41 13.89 31.97 13.86 30.21ZM27.53 21.23C25.65 21.23 24.13 22.76 24.13 24.63V25.02C24.13 25.38 23.85 25.68 23.48 25.7L21.46 25.8H21.45C20.54 25.83 19.82 26.56 19.82 27.48V27.68C19.82 28.05 19.52 28.35 19.15 28.36L17 28.38C16.04 28.41 15.25 29.15 15.21 30.07C15.21 30.11 15.21 30.15 15.21 30.19C15.23 31.22 16.08 32.05 17.11 32.05H32.23C33.82 32.05 35.11 30.76 35.11 29.17V28.82C35.11 27.23 33.82 25.94 32.23 25.94C31.86 25.94 31.55 25.64 31.55 25.26V24.69C31.55 22.78 29.99 21.22 28.07 21.22H27.53V21.23Z" fill="black"/>
<path d="M25.26 22.11C24.35 20.56 22.68 19.5 20.75 19.5C17.85 19.5 15.49 21.86 15.49 24.76C15.49 26.17 16.05 27.44 16.96 28.38C16.47 28.41 16.04 28.61 15.72 28.94C14.77 27.8 14.18 26.36 14.18 24.76C14.18 21.14 17.13 18.19 20.75 18.19C23.16 18.19 25.24 19.5 26.39 21.44C25.97 21.59 25.59 21.82 25.26 22.11Z" fill="black"/>
<path d="M12.6172 16.418L11.6909 17.3443L15.6294 21.2828L16.5557 20.3565L12.6172 16.418Z" fill="black"/>
</svg>
